<svg width="11" height="11" viewBox="0 0 11 11" fill="none" xmlns="http://www.w3.org/2000/svg">
<g clip-path="url(#clip0_18066_206)">
<path fill-rule="evenodd" clip-rule="evenodd" d="M5.93905 10.8364C5.81701 10.9419 5.66107 11 5.49974 11C5.33841 11 5.18247 10.9419 5.06043 10.8364L0.181241 6.45218C0.124329 6.40345 0.0786409 6.34298 0.0473156 6.27492C0.0159903 6.20686 -0.000229836 6.13282 -0.000229836 6.0579C-0.000229836 5.98298 0.0159903 5.90894 0.0473156 5.84088C0.0786409 5.77282 0.124329 5.71235 0.181241 5.66362C0.303281 5.5581 0.459223 5.50003 0.620553 5.50003C0.781884 5.50003 0.937826 5.5581 1.05987 5.66362L5.49974 9.65249L9.93962 5.66362C10.0616 5.55829 10.2174 5.50033 10.3786 5.50033C10.5398 5.50033 10.6956 5.55829 10.8176 5.66362C10.8745 5.71235 10.9202 5.77282 10.9515 5.84088C10.9828 5.90894 10.999 5.98298 10.999 6.0579C10.999 6.13282 10.9828 6.20686 10.9515 6.27492C10.9202 6.34298 10.8745 6.40345 10.8176 6.45218L5.93905 10.8364Z" fill="#fff"/>
<path d="M6.1875 10.3125C6.1875 10.6922 5.8797 11 5.5 11C5.1203 11 4.8125 10.6922 4.8125 10.3125L4.8125 0.6875C4.8125 0.307804 5.1203 0 5.5 0C5.8797 0 6.1875 0.307804 6.1875 0.6875L6.1875 10.3125Z" fill="#fff"/>
</g>
<defs>
<clipPath id="clip0_18066_206">
<rect width="11" height="11" fill="white" transform="matrix(-1 0 0 -1 11 11)"/>
</clipPath>
</defs>
</svg>
