<svg width="78" height="47" viewBox="0 0 78 47" fill="none" xmlns="http://www.w3.org/2000/svg">
<path d="M48.6383 41.69H28.6523V5.78003H48.6383V41.684V41.69Z" fill="#FF5F00"/>
<path d="M29.931 23.666C29.931 16.406 33.273 9.86601 38.646 5.65401C34.725 2.60601 29.79 0.716014 24.558 0.716014C21.5612 0.708497 18.5925 1.29316 15.8224 2.43642C13.0522 3.57968 10.5352 5.259 8.41605 7.37791C6.29686 9.49683 4.6172 12.0136 3.47358 14.7836C2.32996 17.5536 1.7449 20.5222 1.75202 23.519C1.74451 26.5161 2.32927 29.485 3.47271 32.2554C4.61616 35.0257 6.29575 37.5428 8.41498 39.6621C10.5342 41.7813 13.0513 43.4609 15.8217 44.6043C18.592 45.7478 21.561 46.3325 24.558 46.325C29.931 46.325 34.725 44.435 38.646 41.387C33.273 37.463 29.931 30.929 29.931 23.666Z" fill="#EB001B"/>
<path d="M75.5991 23.666C75.6062 26.6628 75.0211 29.6315 73.8775 32.4015C72.7339 35.1715 71.0542 37.6882 68.9351 39.8071C66.8159 41.926 64.2989 43.6054 61.5287 44.7486C58.7586 45.8919 55.7899 46.4765 52.7931 46.469C47.4201 46.469 42.6261 44.579 38.7051 41.531C44.0781 37.319 47.4201 30.929 47.4201 23.522C47.4201 16.112 44.0781 9.72202 38.7051 5.51002C42.6261 2.45902 47.5641 0.572021 52.7931 0.572021C65.2851 0.860021 75.5991 11.03 75.5991 23.666Z" fill="#F79E1B"/>
<path d="M18.4612 24.8772C18.4528 24.6267 18.496 24.3772 18.588 24.1441C18.68 23.911 18.8189 23.6993 18.9961 23.5222C19.1733 23.345 19.385 23.206 19.6181 23.114C19.8512 23.022 20.1007 22.9788 20.3512 22.9872C21.5122 22.9872 22.2382 23.8602 22.2382 24.8772C22.2465 25.1276 22.2033 25.3771 22.1113 25.6102C22.0193 25.8433 21.8804 26.055 21.7032 26.2322C21.526 26.4094 21.3143 26.5483 21.0812 26.6403C20.8481 26.7324 20.5986 26.7755 20.3482 26.7672C19.1872 26.9112 18.4612 26.0382 18.4612 24.8772ZM23.3992 24.8772V21.8262H22.0912V22.6962C21.8544 22.3813 21.5477 22.1257 21.1952 21.9498C20.8427 21.7738 20.4541 21.6822 20.0602 21.6822C18.3172 21.6822 17.0092 22.9902 17.0092 24.8772C17.0092 26.7672 18.3172 28.0722 20.0602 28.0722C20.9302 28.0722 21.5122 27.7812 21.9472 27.2022V27.9282H23.2552V24.8742H23.3992V24.8772ZM67.9912 24.8772C67.9828 24.6267 68.026 24.3772 68.118 24.1441C68.21 23.911 68.3489 23.6993 68.5261 23.5222C68.7033 23.345 68.915 23.206 69.1481 23.114C69.3812 23.022 69.6307 22.9788 69.8812 22.9872C71.0422 22.9872 71.7682 23.8602 71.7682 24.8772C71.7765 25.1276 71.7333 25.3771 71.6413 25.6102C71.5493 25.8433 71.4104 26.055 71.2332 26.2322C71.056 26.4094 70.8443 26.5483 70.6112 26.6403C70.3781 26.7324 70.1286 26.7755 69.8782 26.7672C68.5702 26.9112 67.9912 26.0382 67.9912 24.8772ZM72.7852 24.8772V19.3572H71.4772V22.6992C71.0422 22.1172 70.4572 21.6792 69.5872 21.6792C67.8472 21.6792 66.5392 23.1342 66.5392 24.8772C66.5392 26.7672 67.8442 28.0722 69.5872 28.0722C70.4572 28.0722 71.0422 27.7812 71.4772 27.2022V27.9282H72.7852V24.8742V24.8772ZM39.6652 22.9872C40.5382 22.9872 41.1202 23.5692 41.2642 24.4422H38.0692C38.2162 23.5722 38.7952 22.9902 39.6682 22.9902L39.6652 22.9872ZM39.8152 21.6822C38.0692 21.6822 36.7612 22.9902 36.7612 24.8772C36.7612 26.7672 38.0692 28.0722 39.8122 28.0722C40.6822 28.0722 41.5552 27.7812 42.2812 27.2022L41.7022 26.1822C41.2035 26.5674 40.5892 26.7726 39.9592 26.7642C39.0892 26.7642 38.3602 26.3292 38.2162 25.3122H42.7162V24.8772C42.5722 22.9872 41.4142 21.6822 39.8152 21.6822ZM55.6432 24.8772C55.6348 24.6267 55.678 24.3772 55.77 24.1441C55.862 23.911 56.0009 23.6993 56.1781 23.5222C56.3553 23.345 56.567 23.206 56.8001 23.114C57.0332 23.022 57.2827 22.9788 57.5332 22.9872C58.6942 22.9872 59.4232 23.8602 59.4232 24.8772C59.4315 25.1276 59.3883 25.3771 59.2963 25.6102C59.2043 25.8433 59.0654 26.055 58.8882 26.2322C58.711 26.4094 58.4993 26.5483 58.2662 26.6403C58.0331 26.7324 57.7836 26.7755 57.5332 26.7672C56.3722 26.9112 55.6432 26.0382 55.6432 24.8772ZM60.5842 24.8772V21.8262H59.2762V22.6962C58.8412 22.1172 58.2592 21.6822 57.3862 21.6822C55.6462 21.6822 54.3382 22.9902 54.3382 24.8772C54.3382 26.7672 55.6432 28.0722 57.3862 28.0722C58.2592 28.0722 58.8412 27.7812 59.2762 27.2022V27.9282H60.5842V24.8742V24.8772ZM48.2362 24.8772C48.2362 26.7672 49.5442 28.0722 51.4312 28.0722C52.3012 28.0722 52.8862 27.9282 53.6122 27.3462L53.0302 26.3292C52.5952 26.6202 52.0132 26.9112 51.4312 26.9112C51.1809 26.9191 50.9318 26.8756 50.699 26.7834C50.4663 26.6912 50.255 26.5522 50.0781 26.3751C49.9012 26.1979 49.7626 25.9864 49.6707 25.7535C49.5789 25.5206 49.5358 25.2714 49.5442 25.0212C49.5442 23.8602 50.2702 23.1342 51.4342 23.1342C52.0132 23.1342 52.5952 23.2812 53.0302 23.7162L53.6122 22.6962C53.0302 21.9732 52.4482 21.6822 51.4312 21.6822C49.5442 21.6822 48.2362 23.1342 48.2362 24.8772ZM65.2312 21.6822C64.5052 21.6822 63.9232 21.9732 63.6322 22.5522V21.8262H62.3272V27.9282H63.6322V24.5862C63.6322 23.5692 64.0702 22.9902 64.9402 22.9902C65.2312 22.9902 65.5222 22.9902 65.8102 23.1342L66.2482 21.9732C65.8132 21.8262 65.5252 21.6822 65.2312 21.6822ZM29.9362 22.4082C29.3542 21.9732 28.4842 21.8262 27.4672 21.8262C25.8682 21.8262 24.9982 22.5522 24.9982 23.7162C24.9982 24.7332 25.7242 25.3122 27.0322 25.4562L27.6112 25.6062C28.3372 25.7472 28.6312 25.8942 28.6312 26.1852C28.6312 26.6202 28.1932 26.9112 27.1762 26.9112C26.3062 26.9112 25.5772 26.6202 25.1422 26.3292L24.5602 27.3492C25.2892 27.9282 26.1592 28.0722 27.1762 28.0722C28.9192 28.0722 29.9362 27.2022 29.9362 26.0382C29.9362 25.0212 29.2102 24.4422 27.7582 24.2982L27.1762 24.1482C26.5942 24.0072 26.1592 24.0072 26.1592 23.5692C26.1592 23.1342 26.5942 22.8432 27.3202 22.8432C28.0462 22.8432 28.7752 23.1342 29.2102 23.4252L29.9362 22.4082ZM46.9312 21.6822C46.2052 21.6822 45.6232 21.9732 45.3322 22.5522V21.8262H44.0242V27.9282H45.3322V24.5862C45.3322 23.5692 45.7672 22.9902 46.6402 22.9902C46.9282 22.9902 47.2192 22.9902 47.5102 23.1342L47.9452 21.8262C47.5102 21.8262 47.2192 21.6822 46.9312 21.6822ZM35.6002 21.8262H33.4222V19.9362H32.1142V21.8262H30.9532V23.1342H32.1142V25.8942C32.1142 27.3462 32.6962 28.0722 34.2922 28.0722C34.8559 28.0843 35.4112 27.9333 35.8912 27.6372L35.4562 26.4762C35.0182 26.7642 34.5862 26.7642 34.2922 26.7642C33.5662 26.7642 33.4222 26.3292 33.4222 25.7502V23.1342H35.6002V21.8262ZM15.9952 27.9282V24.1482C15.9952 22.6992 15.1252 21.6822 13.6702 21.6822C13.2544 21.6797 12.8434 21.7697 12.4667 21.9456C12.09 22.1214 11.7571 22.3789 11.4922 22.6992C11.2557 22.3828 10.9488 22.1258 10.5957 21.9488C10.2426 21.7717 9.85314 21.6794 9.45816 21.6792C8.87916 21.6792 8.15316 21.8292 7.71816 22.5522V21.8262H6.41016V27.9282H7.71516V24.5862C7.71516 23.5692 8.29716 22.9902 9.16716 22.9902C10.0372 22.9902 10.4752 23.5692 10.4752 24.5862V27.9282H11.7832V24.5862C11.7832 23.5692 12.3652 22.9902 13.2352 22.9902C14.1052 22.9902 14.5432 23.5692 14.5432 24.5862V27.9282H15.9952Z" fill="white"/>
</svg>
