<svg width="143" height="41" viewBox="0 0 143 41" fill="none" xmlns="http://www.w3.org/2000/svg">
<path d="M80.6681 5.89373L72.0097 24.6171H71.1347V1.85864H58.7686V40.1253H69.0238C71.8055 40.1253 74.2773 38.5195 75.4656 36.039L84.1716 17.3703H85.05V40.1253H97.4161V1.86206H87.0077C84.3282 1.86206 81.8018 3.46448 80.6681 5.89373ZM34.7038 6.87773L29.6 24.6136H28.725L23.5702 6.87773C23.146 5.42649 22.2637 4.15275 21.0558 3.24819C19.848 2.34363 18.3801 1.85719 16.873 1.86206H4.66016V40.1287H17.0228V17.3737H17.9013L25.0104 40.1287H33.2636L40.3727 17.3737H41.2511V40.1287H53.6172V1.86206H41.4009C38.3094 1.86206 35.5277 3.87789 34.7038 6.87773ZM102.571 18.9283V40.1287H114.937V27.716H128.233C130.962 27.7244 133.627 26.8835 135.86 25.3091C138.094 23.7348 139.786 21.5043 140.704 18.9249L102.571 18.9283Z" fill="#319B42"/>
<path d="M127.873 1.86206H100.355C102.058 10.9606 109.991 17.3737 119.524 17.3737H140.91C141.077 16.4872 141.164 15.5871 141.168 14.6848C141.168 7.29114 135.244 1.86206 127.873 1.86206Z" fill="url(#paint0_linear_18348_960)"/>
<defs>
<linearGradient id="paint0_linear_18348_960" x1="100.355" y1="9.61789" x2="141.168" y2="9.61789" gradientUnits="userSpaceOnUse">
<stop stop-color="#00A3E1"/>
<stop offset="0.304" stop-color="#009ADD"/>
<stop offset="0.799" stop-color="#0082D4"/>
<stop offset="1" stop-color="#0076CF"/>
</linearGradient>
</defs>
</svg>
