<svg width="126" height="42" viewBox="0 0 126 42" fill="none" xmlns="http://www.w3.org/2000/svg">
<path d="M80.1994 1.90747C71.6139 1.90747 63.9349 6.36297 63.9349 14.5845C63.9349 24.0205 77.5499 24.675 77.5499 29.407C77.5499 31.4055 75.2574 33.187 71.3584 33.187C65.8144 33.187 61.6704 30.6915 61.6704 30.6915L59.8924 39.0005C59.8924 39.0005 64.6629 41.1075 70.9979 41.1075C80.3919 41.1075 87.7804 36.4315 87.7804 28.063C87.7804 18.0985 74.1094 17.4685 74.1094 13.0585C74.1094 11.4975 75.9854 9.77897 79.8844 9.77897C84.2804 9.77897 87.8644 11.5955 87.8644 11.5955L89.5969 3.58047C89.5969 3.59097 85.6979 1.90747 80.1994 1.90747ZM1.61039 2.51297L1.40039 3.72397C1.40039 3.72397 5.01239 4.38897 8.27089 5.70847C12.4604 7.22397 12.7614 8.10597 13.4649 10.843L21.1544 40.488H31.4619L47.3519 2.51297H37.0654L26.8559 28.3325L22.6909 6.44697C22.3129 3.94097 20.3774 2.51297 18.0009 2.51297H1.61039ZM51.4889 2.51297L43.4249 40.4775H53.2354L61.2609 2.51297H51.4854H51.4889ZM106.194 2.51297C103.831 2.51297 102.571 3.78347 101.651 5.98847L87.2869 40.4775H97.5699L99.5544 34.7235H112.088L113.299 40.4775H122.381L114.457 2.51297H106.194ZM107.534 12.768L110.586 27.0235H102.41L107.531 12.768H107.534Z" fill="url(#paint0_linear_18348_958)"/>
<defs>
<linearGradient id="paint0_linear_18348_958" x1="1.40039" y1="21.504" x2="122.374" y2="21.504" gradientUnits="userSpaceOnUse">
<stop stop-color="#20225F"/>
<stop offset="0.2" stop-color="#1A1F61"/>
<stop offset="0.41" stop-color="#172272"/>
<stop offset="0.595" stop-color="#152682"/>
<stop offset="0.802" stop-color="#12288E"/>
<stop offset="1" stop-color="#0E2C9A"/>
</linearGradient>
</defs>
</svg>
