<svg width="21" height="19" viewBox="0 0 21 19" fill="none" xmlns="http://www.w3.org/2000/svg">
<path d="M10.5 7.10682C10.7048 6.13955 11.8536 1.72721 15.2092 1.72721C17.1517 1.72721 19.25 3.06672 19.25 6.048C19.25 9.42224 16.0764 13.363 10.5 16.9549C4.92362 13.363 1.75 9.42224 1.75 6.048C1.75 3.03908 3.82288 1.72548 5.75488 1.72548C9.1875 1.72548 10.2568 6.1525 10.5 7.10682ZM0 6.048C0 9.56129 2.6775 14.2362 10.5 19C18.3225 14.2362 21 9.56129 21 6.048C21 -0.828297 12.558 -1.74894 10.5 2.82058C8.45425 -1.72389 0 -0.86716 0 6.048Z" fill="#2F3035"/>
</svg>
