<svg width="39" height="36" viewBox="0 0 39 36" fill="none" xmlns="http://www.w3.org/2000/svg">
<path d="M8.86319 7.2C8.86319 5.29044 9.6103 3.45909 10.9402 2.10883C12.27 0.758569 14.0737 0 15.9544 0H23.0456C24.9263 0 26.73 0.758569 28.0598 2.10883C29.3897 3.45909 30.1368 5.29044 30.1368 7.2V10.8H37.228C37.4854 10.8001 37.7396 10.8571 37.973 10.9671C38.2065 11.077 38.4136 11.2372 38.5799 11.4366C38.7462 11.6359 38.8678 11.8697 38.9362 12.1216C39.0046 12.3735 39.0182 12.6374 38.976 12.8952L36.1714 29.9844C35.8954 31.6649 35.0414 33.1917 33.7611 34.2931C32.4809 35.3946 30.8575 35.9994 29.1795 36H9.8205C8.14218 35.9998 6.51834 35.3952 5.23776 34.2937C3.95718 33.1922 3.10289 31.6653 2.8268 29.9844L0.0240033 12.8952C-0.0182003 12.6374 -0.00463161 12.3735 0.0637671 12.1216C0.132166 11.8697 0.253754 11.6359 0.420086 11.4366C0.586418 11.2372 0.793506 11.077 1.02696 10.9671C1.26042 10.8571 1.51465 10.8001 1.77199 10.8H8.86319V7.2ZM12.4088 10.8H21.2728C21.743 10.8 22.1939 10.9896 22.5264 11.3272C22.8588 11.6648 23.0456 12.1226 23.0456 12.6C23.0456 13.0774 22.8588 13.5352 22.5264 13.8728C22.1939 14.2104 21.743 14.4 21.2728 14.4H3.86389L6.32631 29.3922C6.46428 30.2322 6.89104 30.9953 7.53078 31.546C8.17051 32.0967 8.9818 32.3993 9.8205 32.4H29.1795C30.0185 32.3997 30.8302 32.0973 31.4703 31.5466C32.1104 30.9958 32.5374 30.2325 32.6755 29.3922L35.1361 14.4H28.364C27.8938 14.4 27.4429 14.2104 27.1104 13.8728C26.778 13.5352 26.5912 13.0774 26.5912 12.6V7.2C26.5912 6.24522 26.2177 5.32955 25.5527 4.65442C24.8878 3.97928 23.986 3.6 23.0456 3.6H15.9544C15.014 3.6 14.1122 3.97928 13.4473 4.65442C12.7823 5.32955 12.4088 6.24522 12.4088 7.2V10.8Z" fill="#6FBD57"/>
</svg>
