<svg width="36" height="32" viewBox="0 0 36 32" fill="none" xmlns="http://www.w3.org/2000/svg">
<path d="M8.13897 0.0744743C5.04822 0.593323 2.49957 2.5563 1.09984 5.48779C-0.154257 8.11663 -0.34844 11.3854 0.582019 14.2304C2.13548 18.9692 6.88487 24.3479 14.0858 29.5278C16.0115 30.9114 16.3917 31.0757 17.6458 31.0757C18.8271 31.0757 19.2883 30.8854 20.8175 29.8045C28.1964 24.5814 33.1238 19.0557 34.7097 14.2304C35.454 11.9561 35.4864 9.36187 34.7906 7.03569C33.496 2.66872 29.6204 -0.228188 25.4132 0.0139427C23.6008 0.117712 22.0959 0.662502 20.5181 1.78667C19.7414 2.33147 18.4711 3.58535 17.9047 4.35498L17.6458 4.70087L17.3869 4.35498C16.861 3.63724 15.5341 2.32282 14.8221 1.82126C13.6651 0.991106 12.5728 0.489553 11.3025 0.195539C10.6067 0.0312366 8.81052 -0.029295 8.13897 0.0744743ZM10.631 2.27958C12.0307 2.53901 13.4547 3.27404 14.5794 4.32039C15.1538 4.84788 15.9548 5.85964 16.4565 6.68979C16.9257 7.46807 17.1523 7.6929 17.5407 7.73614C18.0018 7.79667 18.2769 7.56319 18.9485 6.49955C20.3482 4.31174 22.1201 2.91949 24.2642 2.34876C25.0895 2.12393 26.7967 2.14987 27.6463 2.392C30.3486 3.16162 32.3633 5.40132 33.0753 8.42794C33.1805 8.88626 33.2128 9.38781 33.2128 10.5812C33.2128 12.0339 33.1966 12.1896 32.9863 12.916C32.2662 15.4237 30.8098 17.7932 28.245 20.6036C26.0604 22.9903 23.2367 25.4635 20.0731 27.7464C17.7996 29.3808 17.4759 29.3808 15.0972 27.6513C11.9336 25.3597 9.23934 23.0076 7.04669 20.6036C4.2634 17.5597 2.78276 15.0606 2.18403 12.3971C1.97366 11.4632 1.97366 9.751 2.18403 8.67871C2.49957 7.04434 3.13067 5.73857 4.15822 4.59711C5.88968 2.66872 8.22797 1.82991 10.631 2.27958Z" fill="#6FBD57"/>
</svg>
