<svg width="37" height="37" viewBox="0 0 37 37" fill="none" xmlns="http://www.w3.org/2000/svg">
<path d="M17.9673 1.02766C17.3925 1.07244 16.8327 1.25159 16.2132 1.56508C15.8325 1.75915 14.7502 2.81159 8.62216 8.91727C3.59879 13.9332 1.42672 16.15 1.2849 16.4038C0.650451 17.5757 1.11323 19.1357 2.30003 19.7925C2.6807 20.0015 2.75534 20.0165 3.82272 20.0538L4.94234 20.0911L4.97966 26.5103C5.00952 32.2353 5.03191 32.9593 5.13641 33.2355C5.68875 34.5865 6.55459 35.4374 7.77872 35.8255L8.30121 35.9897H18.4898H28.6783L29.2008 35.8255C30.425 35.4374 31.2908 34.5865 31.8431 33.2355C31.9476 32.9593 31.97 32.2353 31.9999 26.5103L32.0372 20.0911L33.1195 20.0538C34.0152 20.0239 34.2615 19.9866 34.5377 19.8597C35.5752 19.3671 36.1723 18.2325 35.9559 17.1577C35.9036 16.9263 35.7842 16.5755 35.6797 16.3889C35.5528 16.1575 33.2315 13.7839 28.3574 8.91727C21.7815 2.36374 21.1694 1.77407 20.6917 1.52776C19.8408 1.08738 18.9899 0.930626 17.9673 1.02766ZM19.7587 2.84892C20.2215 3.05045 20.6096 3.43112 27.2079 10.007C31.037 13.8287 34.2242 17.0457 34.2839 17.1577C34.4929 17.5608 34.3511 18.1504 33.9928 18.352C33.8809 18.4191 33.3509 18.4639 32.3582 18.4863L30.8803 18.5236L30.6787 18.7326L30.4697 18.9342L30.4324 25.7863L30.3951 32.6309L30.1861 33.0563C29.9622 33.5191 29.5666 33.9147 29.0739 34.176C28.7604 34.3476 28.7082 34.3476 26.0136 34.37L23.2743 34.3924L23.2519 29.7049L23.2295 25.0174L22.9757 24.5472C22.6921 24.0247 22.4607 23.8008 21.8934 23.5022L21.5128 23.3007H18.4898H15.4668L15.0936 23.4873C14.6159 23.7187 14.168 24.1665 13.9366 24.6442L13.75 25.0174L13.7276 29.7049L13.7053 34.3924L10.9659 34.37C8.27135 34.3476 8.2191 34.3476 7.90561 34.176C7.41297 33.9147 7.01737 33.5191 6.79345 33.0563L6.58445 32.6309L6.54713 25.7863L6.50981 18.9342L6.30081 18.7326L6.09928 18.5236L4.62138 18.4863C3.62865 18.4639 3.09869 18.4191 2.98673 18.352C2.62845 18.1504 2.48663 17.5608 2.69563 17.1577C2.75534 17.0457 5.92014 13.8436 9.73432 10.0369C14.6756 5.10309 16.7581 3.0803 16.9969 2.95341C17.6015 2.65485 17.9001 2.58767 18.6017 2.61006C19.1466 2.63245 19.3631 2.67724 19.7587 2.84892ZM21.2142 24.9503C21.7068 25.1817 21.6994 25.0772 21.6994 29.9736V34.385H18.4898H15.2802V29.9736C15.2802 25.0995 15.2727 25.1891 15.7504 24.9503C16.1087 24.7786 20.8484 24.7711 21.2142 24.9503Z" fill="#6FBD57" stroke="#6FBD57"/>
</svg>
