<svg width="11" height="16" viewBox="0 0 11 16" fill="none" xmlns="http://www.w3.org/2000/svg">
<path fill-rule="evenodd" clip-rule="evenodd" d="M10.5385 5.34162C10.5385 7.56736 7.53919 12.3921 6.06629 14.6272C5.68463 15.2063 4.85387 15.2063 4.47221 14.6272C2.99931 12.3921 0 7.56736 0 5.34162C0 2.39153 2.35912 0 5.26925 0C8.17938 0 10.5385 2.39153 10.5385 5.34162ZM7.72821 5.34157C7.72821 6.71829 6.62728 7.83433 5.26922 7.83433C3.91116 7.83433 2.81024 6.71829 2.81024 5.34157C2.81024 3.96486 3.91116 2.84882 5.26922 2.84882C6.62728 2.84882 7.72821 3.96486 7.72821 5.34157Z" fill="white"/>
</svg>
