<svg width="31" height="31" viewBox="0 0 31 31" fill="none" xmlns="http://www.w3.org/2000/svg">
<g clip-path="url(#clip0_18521_63)">
<path d="M0 1.86C0 0.83275 0.817329 0 1.82556 0H7.30222C8.31048 0 9.12778 0.83275 9.12778 1.86V7.44C9.12778 8.46728 8.31048 9.3 7.30222 9.3H1.82556C0.817329 9.3 0 8.46728 0 7.44V1.86Z" fill="white"/>
<path d="M0 12.7101C0 11.6828 0.817329 10.8501 1.82556 10.8501H7.30222C8.31048 10.8501 9.12778 11.6828 9.12778 12.7101V18.2901C9.12778 19.3174 8.31048 20.1501 7.30222 20.1501H1.82556C0.817329 20.1501 0 19.3174 0 18.2901V12.7101Z" fill="white"/>
<path d="M0 23.56C0 22.5327 0.817329 21.7 1.82556 21.7H7.30222C8.31048 21.7 9.12778 22.5327 9.12778 23.56V29.14C9.12778 30.1672 8.31048 31 7.30222 31H1.82556C0.817329 31 0 30.1672 0 29.14V23.56Z" fill="white"/>
<path d="M10.6489 1.86C10.6489 0.83275 11.4662 0 12.4745 0H17.9511C18.9594 0 19.7767 0.83275 19.7767 1.86V7.44C19.7767 8.46728 18.9594 9.3 17.9511 9.3H12.4745C11.4662 9.3 10.6489 8.46728 10.6489 7.44V1.86Z" fill="white"/>
<path d="M10.6489 12.7101C10.6489 11.6828 11.4662 10.8501 12.4745 10.8501H17.9511C18.9594 10.8501 19.7767 11.6828 19.7767 12.7101V18.2901C19.7767 19.3174 18.9594 20.1501 17.9511 20.1501H12.4745C11.4662 20.1501 10.6489 19.3174 10.6489 18.2901V12.7101Z" fill="white"/>
<path d="M10.6489 23.56C10.6489 22.5327 11.4662 21.7 12.4745 21.7H17.9511C18.9594 21.7 19.7767 22.5327 19.7767 23.56V29.14C19.7767 30.1672 18.9594 31 17.9511 31H12.4745C11.4662 31 10.6489 30.1672 10.6489 29.14V23.56Z" fill="white"/>
<path d="M21.2983 1.86C21.2983 0.83275 22.1156 0 23.1239 0H28.6006C29.6088 0 30.4261 0.83275 30.4261 1.86V7.44C30.4261 8.46728 29.6088 9.3 28.6006 9.3H23.1239C22.1156 9.3 21.2983 8.46728 21.2983 7.44V1.86Z" fill="white"/>
<path d="M21.2983 12.7101C21.2983 11.6828 22.1156 10.8501 23.1239 10.8501H28.6006C29.6088 10.8501 30.4261 11.6828 30.4261 12.7101V18.2901C30.4261 19.3174 29.6088 20.1501 28.6006 20.1501H23.1239C22.1156 20.1501 21.2983 19.3174 21.2983 18.2901V12.7101Z" fill="white"/>
<path d="M21.2983 23.56C21.2983 22.5327 22.1156 21.7 23.1239 21.7H28.6006C29.6088 21.7 30.4261 22.5327 30.4261 23.56V29.14C30.4261 30.1672 29.6088 31 28.6006 31H23.1239C22.1156 31 21.2983 30.1672 21.2983 29.14V23.56Z" fill="white"/>
</g>
<defs>
<clipPath id="clip0_18521_63">
<rect width="31" height="31" fill="white"/>
</clipPath>
</defs>
</svg>
