<svg width="27" height="33" viewBox="0 0 27 33" fill="none" xmlns="http://www.w3.org/2000/svg">
<path opacity="0.948" fill-rule="evenodd" clip-rule="evenodd" d="M13.2964 1C17.0336 1.12533 19.5245 2.89674 20.7692 6.31423C21.5539 9.51044 20.6562 12.1552 18.076 14.2487C17.6328 14.5752 17.1522 14.8458 16.6345 15.0606C20.6893 16.176 23.5343 18.624 25.1695 22.4045C25.9567 24.4146 26.1843 26.4813 25.8523 28.6045C25.5748 30.2275 24.6264 31.2732 23.0073 31.7413C22.2923 31.873 21.5716 31.9591 20.8451 31.9997C18.409 31.7889 15.9686 31.6412 13.524 31.5568C11.092 31.6392 8.66427 31.7868 6.24079 31.9997C2.62871 32.0282 0.883752 30.2815 1.006 26.7592C1.2715 21.6506 3.74979 17.9725 8.44092 15.7248C9.08222 15.4595 9.73968 15.2381 10.4134 15.0606C7.58021 13.6949 6.11349 11.4684 6.01319 8.38087C6.14892 4.97968 7.84324 2.6547 11.0962 1.40595C11.8249 1.18961 12.5583 1.0543 13.2964 1ZM13.2205 2.54998C16.573 2.67502 18.634 4.32341 19.4036 7.49517C19.6739 9.90701 18.8015 11.8137 16.7862 13.2153C14.6114 14.4455 12.4366 14.4455 10.2617 13.2153C7.79196 11.3946 7.04596 9.045 8.02365 6.16661C9.05271 3.99581 10.785 2.79027 13.2205 2.54998ZM13.2205 16.2046C17.6032 16.2996 20.9034 18.1694 23.1211 21.8141C24.351 24.0632 24.6797 26.4251 24.1073 28.8997C23.8116 29.6772 23.2426 30.1324 22.4004 30.2652C21.8856 30.3534 21.3672 30.4149 20.8451 30.4497C18.4089 30.2306 15.9686 30.083 13.524 30.0068C11.0793 30.083 8.63901 30.2306 6.20286 30.4497C5.37 30.45 4.5734 30.2901 3.81306 29.9699C3.16175 29.4781 2.79501 28.8262 2.713 28.014C2.38821 23.3681 4.27221 19.8622 8.36505 17.4962C9.90234 16.7388 11.5208 16.3083 13.2205 16.2046Z" fill="#6FBD57" stroke="#6FBD57"/>
</svg>
