<svg width="25" height="19" viewBox="0 0 25 19" fill="none" xmlns="http://www.w3.org/2000/svg">
<path d="M25 0L24.226 2.11111H22.2167L18.5979 14.7778H4.80729L0 3.16667H17.5125L16.925 5.27778H3.13333L6.19271 12.6667H17.0552L20.6302 0H25ZM8.85417 15.8333C7.99167 15.8333 7.29167 16.5427 7.29167 17.4167C7.29167 18.2917 7.99167 19 8.85417 19C9.71667 19 10.4167 18.2917 10.4167 17.4167C10.4167 16.5427 9.71667 15.8333 8.85417 15.8333ZM14.0625 15.8333C13.2 15.8333 12.5 16.5416 12.5 17.4167C12.5 18.2917 13.2 19 14.0625 19C14.925 19 15.625 18.2917 15.625 17.4167C15.625 16.5427 14.925 15.8333 14.0625 15.8333Z" fill="#2F3035"/>
</svg>
